<?xml version="1.0" encoding="utf-8"?>
<!-- Generator: Adobe Illustrator 24.1.2, SVG Export Plug-In . SVG Version: 6.00 Build 0)  -->
<svg version="1.1" id="Camada_1" xmlns="http://www.w3.org/2000/svg" xmlns:xlink="http://www.w3.org/1999/xlink" x="0px" y="0px"
	 viewBox="0 0 872.8 347.8" style="enable-background:new 0 0 872.8 347.8;" xml:space="preserve">
<style type="text/css">
	.st0{fill:#FFFFFF;}
	.st1{fill:#EE7922;}
</style>
<g>
	<g>
		<path class="st0" d="M441.4,350.1c-0.7-0.2-1.2-0.6-1.7-1.1c-3.5-3.5-7-6.9-10.4-10.4c-0.9-0.9-1.7-1.7-2.6-2.6
			c-1.4-1.4-1.4-2.8,0-4.2c4.5-4.4,8.9-8.9,13.4-13.3c0.7-0.7,1.6-0.9,2.5-0.5c0.9,0.4,1.4,1.1,1.4,2.2c0,1.7,0,3.5,0,5.2
			c0,0.5,0.1,0.6,0.6,0.6c8.7,0,17.5,0,26.2,0c0.7,0,1.4,0,2.2,0c1.7,0.1,2.5,0.9,2.6,2.7c0,1.1,0,2.1,0,3.2c0,2.3,0,4.6,0,6.9
			c0,0.3,0,0.6-0.1,0.9c-0.2,1.3-0.9,2-2.3,2.1c-0.3,0-0.5,0-0.8,0c-9.3,0-18.5,0-27.8,0c-0.5,0-0.6,0.1-0.6,0.6c0,1.6,0,3.2,0,4.8
			c0,1.7-0.4,2.3-2,2.8C441.7,350.1,441.6,350.1,441.4,350.1z"/>
		<path class="st0" d="M281.8,289.1c0,0.3,0,0.5,0,0.6c0,8.7,0,17.4,0,26.2c0,0.2,0,0.4,0,0.6c-0.1,1.6-1,2.4-2.5,2.4
			c-4.3,0-8.6,0-12.9,0c-1.9,0-2.7-0.9-2.7-2.8c0-12.9,0-25.8,0-38.7c0-4.8,0-9.7,0-14.5c0-1.9,0.9-2.8,2.8-2.8c3,0,6,0,8.9,0
			c1.7,0,3.1,0.6,4.2,1.9c3.4,3.9,6.8,7.7,10.2,11.6c1.9,2.2,3.8,4.4,5.7,6.6c0,0,0.1,0.1,0.2,0.2c0-0.2,0-0.4,0-0.6
			c0-5.4,0-10.9,0-16.3c0-0.4,0-0.8,0.1-1.3c0.2-1.1,0.9-1.8,2-2c0.3,0,0.5,0,0.8,0c4.1,0,8.2,0,12.4,0c0.3,0,0.5,0,0.8,0
			c1.2,0.1,2,0.9,2.1,2.1c0,0.3,0,0.6,0,0.9c0,17.6,0,35.2,0,52.7c0,0.2,0,0.4,0,0.7c-0.1,1.5-1,2.3-2.5,2.4c-1.7,0-3.4,0-5,0
			c-2.5,0-4.9,0-7.4,0c-2.4,0-3.2-0.8-3.2-3.3c0-3,0-6.1,0-9.1c0-0.4-0.1-0.8-0.4-1.1c-4.5-5.4-8.9-10.8-13.4-16.2
			C282,289.3,281.9,289.3,281.8,289.1z"/>
		<path class="st0" d="M442.7,289.6c0-4.7-0.1-9.4,0-14.1c0-2.6,0.6-5.2,1.8-7.6c1.6-3,4.1-5,7.2-6.2c2.3-0.9,4.7-1.3,7.1-1.5
			c2.1-0.2,4.3-0.1,6.4-0.1c5.8,0,11.6,0,17.5,0c0.3,0,0.5,0,0.8,0c1.3,0.1,2.1,0.9,2.2,2.2c0,0.6,0,1.2,0,1.9c0,3,0,6.1,0,9.1
			c0,1.7-1,2.5-2.6,2.5c-2.4,0-4.7,0-7.1,0c-3.4,0-6.8,0-10.2,0c-0.5,0-1,0.1-1.5,0.2c-1.8,0.4-2.8,1.7-2.8,3.6c0,1.5,0,3,0,4.5
			c0,5.1,0,10.1,0,15.2c0,2.2,1.1,3.5,3.3,3.8c0.5,0.1,1,0.1,1.6,0.1c5.4,0,10.8,0,16.2,0c2.5,0,3.3,0.8,3.3,3.3c0,3,0,5.9,0,8.9
			c0,0.4,0,0.7,0,1.1c-0.1,1.5-0.9,2.3-2.4,2.4c-0.3,0-0.5,0-0.8,0c-6.6,0-13.2,0-19.8,0c-3.4,0-6.7-0.3-9.9-1.3
			c-4-1.3-7.1-3.6-8.7-7.6c-1-2.3-1.3-4.6-1.3-7.1C442.7,298.5,442.7,294.1,442.7,289.6C442.7,289.6,442.7,289.6,442.7,289.6z"/>
		<path class="st0" d="M527.2,253c-4.6,0-9.2,0-13.9,0c-0.3,0-0.5,0-0.8,0c-1.4-0.2-2.1-1-2.2-2.4c0-0.9,0-1.8,0-2.7
			c0-2.5,0-5,0-7.5c0-0.3,0-0.5,0-0.8c0.1-1.4,0.9-2.1,2.3-2.3c0.2,0,0.5,0,0.7,0c9.3,0,18.6,0,27.9,0c0.7,0,0.7,0,0.7-0.7
			c0-1.7,0-3.4,0-5.1c0-1,0.4-1.8,1.3-2.3c0.9-0.4,1.8-0.2,2.7,0.6c2,2,3.9,3.9,5.9,5.9c2.4,2.4,4.8,4.8,7.3,7.2
			c0.2,0.2,0.4,0.4,0.5,0.6c0.9,1.2,0.9,2.3-0.1,3.5c-0.6,0.7-1.4,1.4-2.1,2.1c-2.3,2.2-4.5,4.5-6.8,6.7c-1.6,1.6-3.3,3.3-4.9,4.9
			c-1.3,1.2-3.3,0.7-3.8-0.9c-0.1-0.3-0.1-0.6-0.1-0.9c0-1.7,0-3.5,0-5.2c0-0.4-0.1-0.5-0.5-0.5C536.7,253,532,253,527.2,253z"/>
		<path class="st0" d="M605.5,271.9c-0.4-2.5-1.3-4.8-3-6.8c-1.9-2.1-4.2-3.4-6.8-4.3c-4.3-1.5-8.8-1.8-13.3-2
			c-3.5-0.1-7,0-10.5,0.5c-2.8,0.4-5.6,0.9-8.2,2c-2.8,1.2-5.1,2.8-6.7,5.4c-1.6,2.5-2.1,5.4-2.1,8.3c0,9.6,0,19.1,0,28.7
			c0,1.4,0.1,2.8,0.4,4.1c0.5,2.7,1.7,5,3.7,6.9c1.9,1.8,4.2,2.9,6.7,3.6c3.6,1.1,7.3,1.5,11,1.7c2.8,0.1,5.5,0.1,8.3-0.1
			c3.4-0.2,6.8-0.6,10-1.6c2.4-0.8,4.7-1.8,6.6-3.6c2.2-2.1,3.4-4.7,3.8-7.6c0.1-0.7,0.1-1.3,0.3-2c0-10.3,0-20.6,0-31
			C605.7,273.5,605.6,272.7,605.5,271.9z M584.1,304.1c-2.5,0.5-5,0.5-7.5,0c-0.3-0.1-0.6-0.2-0.9-0.3c-1.5-0.5-2.1-1.5-2.1-3.1
			c0-4.2,0-8.4,0-12.5c0-3.2,0-6.3,0-9.5c0-1.9,0.8-2.9,2.6-3.4c1.6-0.5,3.3-0.5,5-0.4c1.2,0,2.3,0.1,3.5,0.4
			c1.9,0.5,2.6,1.5,2.6,3.5c0,3.6,0,7.2,0,10.8c0,3.5,0,7.1,0,10.6C587.3,302.4,586.6,303.6,584.1,304.1z"/>
		<path class="st0" d="M433.6,295.5c0-2.7-0.4-5.4-1.1-8c-1-3.7-2.5-7.3-3.9-10.9c-1.8-4.6-3.5-9.2-5.3-13.9
			c-0.5-1.3-1.4-2.2-2.9-2.5c-0.4-0.1-0.7-0.1-1.1-0.1c-7.4,0-14.8,0-22.2,0c-2.3,0-3.4,0.8-4.2,2.9c-0.9,2.4-1.9,4.8-2.8,7.2
			c-1.9,5-3.9,9.9-5.6,14.9c-1.3,3.7-1.9,7.4-1.9,11.4c0.1,6.4,0,12.8,0,19.2c0,0.3,0,0.5,0,0.8c0.1,1.7,0.9,2.6,2.6,2.6
			c4.2,0,8.4,0,12.7,0c1.6,0,2.4-0.8,2.6-2.4c0-0.2,0-0.4,0-0.6c0-3.6,0-7.3,0-10.9c0-0.5,0.1-0.6,0.6-0.5c4.4,0,8.9,0,13.3,0
			c0.4,0,0.6,0.1,0.6,0.6c0,3.6,0,7.3,0,10.9c0,1.9,0.9,2.8,2.8,2.9c3.1,0,6.2,0,9.3,0c1.3,0,2.6,0,3.9,0c1.5-0.1,2.4-0.9,2.5-2.4
			c0-0.3,0-0.7,0-1c0-3.6,0-7.1,0-10.7C433.6,301.7,433.5,298.6,433.6,295.5z M413.7,289.7c-3.9,0-7.9,0-11.8,0c-0.1,0-0.3,0-0.4,0
			c0.3-0.9,0.5-1.8,0.8-2.7c1-3.1,1.9-6.2,2.9-9.4c0.1-0.4,0.3-0.7,0.5-1c0.3-0.4,0.7-0.7,1.3-0.7c0.5,0,1.1,0,1.6,0
			c0.8-0.1,1.3,0.3,1.6,1c0.4,0.8,0.6,1.7,0.8,2.5c1,3.2,2,6.5,3,9.7C414.2,289.6,414.1,289.7,413.7,289.7z"/>
		<path class="st0" d="M545.8,294.5c0-0.6,0-1.2-0.1-1.9c-0.3-3-1.1-5.8-2.1-8.6c-2.6-7.1-5.4-14-8-21.1c-0.8-2-1.9-2.8-4.1-2.8
			c-2.9,0-5.8,0-8.7,0c-4.5,0-9,0-13.6,0c-2.1,0-3.3,0.8-4,2.7c-1.1,2.9-2.2,5.7-3.3,8.6c-1.8,4.7-3.7,9.4-5.3,14.2
			c-1.1,3.4-1.8,6.8-1.7,10.4c0.1,2.1,0,4.3,0,6.4c0,4.5,0,9,0,13.5c0,2.1,0.9,3,3,3c2.9,0,5.9,0,8.8,0c1.2,0,2.5,0,3.7,0
			c1.4,0,2.2-0.8,2.5-2.2c0.1-0.4,0.1-0.7,0.1-1.1c0-3.5,0-7.1,0-10.6c0-0.4,0.1-0.5,0.5-0.5c4.5,0,8.9,0,13.4,0
			c0.4,0,0.6,0.1,0.6,0.6c0,3.6,0,7.3,0,10.9c0,1.9,0.9,2.9,2.8,2.9c4.2,0,8.3,0,12.5,0c2.3,0,3.2-0.8,3.2-3.1c0-3.7,0-7.4,0-11
			C545.8,301.4,545.8,297.9,545.8,294.5z M525.9,289.7c-2,0-3.9,0-5.9,0c-2,0-3.9,0-5.9,0c-0.3,0-0.4-0.1-0.3-0.4
			c1.2-3.9,2.4-7.9,3.7-11.8c0.4-1.2,0.9-1.6,2.2-1.6c0.4,0,0.8,0,1.2,0c0.8,0,1.3,0.3,1.6,1c0.4,0.8,0.6,1.7,0.8,2.5
			c1,3.2,2,6.5,3,9.7C526.4,289.6,526.4,289.7,525.9,289.7z"/>
		<path class="st0" d="M373.4,291.5c-0.4-2.8-1.2-5.5-2.2-8.2c-2.6-6.9-5.2-13.7-7.9-20.6c-0.7-1.7-1.8-2.5-3.7-2.5
			c-7.6,0-15.1,0-22.7,0c-2,0-3.1,0.9-3.8,2.7c-1.3,3.4-2.6,6.7-3.9,10.1c-1.6,4.3-3.4,8.5-4.8,12.9c-1.1,3.3-1.7,6.6-1.6,10.1
			c0.1,3,0,5.9,0,8.9c0,3.8,0,7.6,0,11.4c0,1.7,0.9,2.6,2.6,2.7c3.8,0,7.7,0,11.5,0c0.4,0,0.9,0,1.3,0c1.6-0.1,2.4-0.9,2.5-2.5
			c0-0.6,0-1.1,0-1.7c0-3.2,0-6.5,0-9.7c0-0.3,0-0.5,0.4-0.5c4.5,0,9,0,13.6,0c0.4,0,0.5,0.1,0.4,0.5c0,0.6,0,1.2,0,1.8
			c0,3.1,0,6.1,0,9.2c0,2,0.9,3,2.9,3c4.3,0,8.7,0,13,0c1.6,0,2.5-0.9,2.6-2.5c0-0.2,0-0.4,0-0.6c0-7.2,0-14.4,0-21.5
			C373.7,293.4,373.6,292.4,373.4,291.5z M353.7,289.7c-1.9,0-3.9,0-5.8,0c-2,0-3.9,0-5.9,0c-0.4,0-0.5-0.1-0.3-0.5
			c1.2-3.9,2.4-7.8,3.7-11.8c0.4-1.2,0.9-1.6,2.1-1.6c0.5,0,0.9,0,1.4,0c0.6,0,1,0.3,1.3,0.7c0.4,0.6,0.6,1.4,0.8,2.1
			c1.1,3.5,2.2,6.9,3.2,10.4C354.3,289.7,354.3,289.7,353.7,289.7z"/>
	</g>
	<g>
		<path class="st0" d="M127.2,154.6l-13.5-33H51.5l-13.5,33H5L68.1,6.4h29.9L161,154.6H127.2z M82.6,45.2L63.1,93h39.1L82.6,45.2z"
			/>
		<path class="st0" d="M277.9,154.6V58.5l-41.4,62.9h-0.8l-41-62.2v95.4h-32V7.4h34.9l38.7,62.2L275,7.4h34.9v147.2H277.9z"/>
		<path class="st0" d="M436,81.2c-3.1,6.4-7.3,11.8-12.7,16.2c-5.4,4.3-11.7,7.6-18.9,9.8c-7.2,2.2-15,3.3-23.2,3.3h-24.6v44.1
			h-32.4V7.4h60.1c8.8,0,16.7,1.2,23.7,3.7c6.9,2.5,12.8,5.9,17.7,10.4c4.8,4.5,8.5,9.8,11.1,16.1c2.6,6.2,3.9,13.1,3.9,20.7v0.4
			C440.6,67.3,439.1,74.8,436,81.2z M407.8,58.9c0-7.3-2.3-12.8-7-16.6c-4.7-3.8-11.1-5.7-19.2-5.7h-25v45h25.6
			c8.1,0,14.4-2.1,18.9-6.4c4.5-4.3,6.7-9.6,6.7-15.9V58.9z"/>
		<path class="st0" d="M553.1,154.6l-13.5-33h-62.2l-13.5,33h-33L494,6.4h29.9l63.1,148.2H553.1z M508.5,45.2L489,93h39.1
			L508.5,45.2z"/>
		<path class="st0" d="M678,154.6l-31.5-47.1H621v47.1h-32.4V7.4h67.3c17.5,0,31.1,4.3,40.9,12.8c9.7,8.5,14.6,20.5,14.6,35.7v0.4
			c0,11.9-2.9,21.6-8.7,29.1c-5.8,7.5-13.4,13-22.8,16.5l35.9,52.6H678z M678.6,57.6c0-7-2.2-12.3-6.7-15.8
			c-4.5-3.5-10.7-5.3-18.7-5.3H621v42.3h32.8c8,0,14.1-1.9,18.4-5.7c4.3-3.8,6.4-8.8,6.4-15.1V57.6z"/>
		<path class="st0" d="M863.6,110.5c-3.9,9.2-9.4,17.2-16.3,24.2s-15.2,12.4-24.8,16.4c-9.6,4-20.1,6-31.4,6c-11.4,0-21.8-2-31.3-6
			c-9.5-4-17.8-9.4-24.7-16.2c-6.9-6.8-12.3-14.8-16.2-24c-3.9-9.2-5.8-19-5.8-29.5V81c0-10.5,2-20.4,5.9-29.5
			c3.9-9.2,9.4-17.2,16.3-24.2c6.9-6.9,15.2-12.4,24.8-16.4c9.6-4,20.1-6,31.4-6c11.4,0,21.8,2,31.3,6c9.5,4,17.8,9.4,24.7,16.2
			c6.9,6.8,12.3,14.8,16.2,24c3.9,9.2,5.8,19,5.8,29.5V81C869.5,91.5,867.5,101.3,863.6,110.5z M835.6,81c0-6.3-1.1-12.3-3.3-17.9
			c-2.2-5.6-5.3-10.5-9.3-14.7c-4-4.2-8.7-7.5-14.2-10c-5.5-2.5-11.4-3.7-17.9-3.7c-6.6,0-12.6,1.2-18,3.6c-5.4,2.4-10,5.7-13.9,9.9
			c-3.9,4.2-6.9,9.1-9,14.6c-2.2,5.5-3.3,11.5-3.3,17.8V81c0,6.3,1.1,12.3,3.3,17.9c2.2,5.6,5.3,10.5,9.3,14.7s8.7,7.5,14.1,10
			c5.4,2.5,11.4,3.7,18,3.7c6.4,0,12.4-1.2,17.9-3.6c5.5-2.4,10.1-5.7,14-9.9c3.9-4.2,6.9-9.1,9-14.6c2.2-5.5,3.3-11.5,3.3-17.8V81z
			"/>
	</g>
	<g>
		<circle class="st1" cx="791.1" cy="81" r="31.9"/>
	</g>
	<rect x="5" y="199.1" class="st0" width="864.5" height="5.9"/>
</g>
</svg>
